<?xml version="1.0"?>
<svg xmlns="http://www.w3.org/2000/svg" xmlns:xlink="http://www.w3.org/1999/xlink" xmlns:svgjs="http://svgjs.com/svgjs" version="1.1" width="512" height="512" x="0" y="0" viewBox="0 0 512.237 512.237" style="enable-background:new 0 0 512 512" xml:space="preserve" class=""><g><g xmlns="http://www.w3.org/2000/svg"><path d="m498.224 383.461-85.019-85.034c41.124-73.634 10.242-173.899-61.872-212.93v-70.379c0-8.284-6.716-15-15-15h-321.333c-8.284 0-15 6.716-15 15v369.533c0 3.979 1.58 7.793 4.394 10.606l112.466 112.468c2.813 2.813 6.628 4.394 10.606 4.394h208.866c8.284 0 15-6.716 15-15v-127.223s80.206 80.219 80.206 80.219c45.835 42.552 109.147-20.859 66.686-66.654zm-385.757 77.444-61.253-61.253h61.253zm208.866 21.213h-178.866v-97.467c0-8.284-6.716-15-15-15h-97.467v-339.533h291.333v42.005c-100.423-34.221-210.677 45.418-208.864 151.864-1.816 106.42 108.451 186.116 208.864 151.854zm-49.267-128.533c-71.461 0-129.6-58.138-129.6-129.6 6.515-171.697 252.711-171.649 259.2.002.001 71.46-58.138 129.598-129.6 129.598zm204.94 75.323c-6.685 6.689-17.571 6.68-24.25-.003l-80.651-80.664c8.918-7.194 17.048-15.326 24.241-24.246l80.66 80.675c6.679 6.682 6.679 17.556 0 24.238z" fill="#d5d5d5" data-original="#000000" style="" class=""/><path d="m272.066 128.652c-52.567 0-95.333 42.767-95.333 95.333 4.793 126.3 185.893 126.264 190.667-.001 0-52.566-42.766-95.332-95.334-95.332zm0 160.667c-36.025 0-65.333-29.309-65.333-65.333 3.285-86.555 127.396-86.531 130.667.001 0 36.023-29.308 65.332-65.334 65.332z" fill="#d5d5d5" data-original="#000000" style="" class=""/></g></g></svg>
