<?xml version="1.0" encoding="UTF-8"?>
<svg width="20px" height="24px" viewBox="0 0 20 24" version="1.1" xmlns="http://www.w3.org/2000/svg" xmlns:xlink="http://www.w3.org/1999/xlink">
    <title>delete_dark</title>
    <defs>
        <polygon id="path-1" points="0 4.62962963e-05 19.9999375 4.62962963e-05 19.9999375 4.44444444 0 4.44444444"></polygon>
    </defs>
    <g id="delete_dark" stroke="none" stroke-width="1" fill="none" fill-rule="evenodd">
        <g id="Group-6">
            <path d="M17.3916309,5.55555556 L2.60836906,5.55555556 C1.98598318,5.55555556 1.48148148,6.07107002 1.48148148,6.70694069 L1.48148148,20.0617208 C1.48148148,21.6610759 2.75495895,22.962963 4.32095068,22.962963 L15.679005,22.962963 C17.2450411,22.962963 18.5185185,21.6610759 18.5185185,20.0617208 L18.5185185,6.70694069 C18.5185185,6.07107002 18.0139725,5.55555556 17.3916309,5.55555556" id="Fill-1" fill-opacity="0.691324301" fill="#151C2A"></path>
            <g id="Group-5" transform="translate(0.000000, 0.000000)">
                <mask id="mask-2" fill="white">
                    <use xlink:href="#path-1"></use>
                </mask>
                <g id="Clip-4"></g>
                <path d="M19.1860089,1.48152778 L12.857125,1.48152778 L12.857125,4.62962963e-05 L7.14283929,4.62962963e-05 L7.14283929,1.48152778 L0.814,1.48152778 C0.364401786,1.48152778 -1.78571429e-05,1.85944444 -1.78571429e-05,2.32564815 L-1.78571429e-05,3.60032407 C-1.78571429e-05,4.06652778 0.364401786,4.44444444 0.814,4.44444444 L19.1860089,4.44444444 C19.6355179,4.44444444 19.9999375,4.06652778 19.9999375,3.60032407 L19.9999375,2.32564815 C19.9999375,1.85944444 19.6355179,1.48152778 19.1860089,1.48152778" id="Fill-3" fill-opacity="0.691324301" fill="#151C2A" mask="url(#mask-2)"></path>
            </g>
        </g>
    </g>
</svg>