<?xml version="1.0" encoding="UTF-8"?>
<svg width="18px" height="23px" viewBox="0 0 18 23" version="1.1" xmlns="http://www.w3.org/2000/svg" xmlns:xlink="http://www.w3.org/1999/xlink">
    <title>document_dark</title>
    <defs>
        <filter id="filter-1">
            <feColorMatrix in="SourceGraphic" type="matrix" values="0 0 0 0 0.081763 0 0 0 0 0.111719 0 0 0 0 0.164142 0 0 0 0.691324 0"></feColorMatrix>
        </filter>
    </defs>
    <g id="document_dark" stroke="none" stroke-width="1" fill="none" fill-rule="evenodd">
        <g filter="url(#filter-1)" id="Group-9-Copy-4">
            <g>
                <path d="M14.9686224,20.8431936 L3.0189744,20.8431936 C2.2304304,20.8431936 1.5911664,20.2039296 1.5911664,19.4153856 L1.5911664,3.0189216 C1.5911664,2.2303776 2.2304304,1.5911616 3.0189744,1.5911616 L11.2863984,1.5911616 L11.2863984,6.1546176 C11.2863984,6.7887936 11.8005264,7.3028736 12.4346544,7.3028736 L16.3966704,7.3028736 L16.3966704,19.4153856 C16.3964304,20.2027296 15.7559664,20.8431936 14.9686224,20.8431936 L14.9686224,20.8431936 Z M12.8773104,2.8781376 L15.4128144,5.7120096 L12.8773104,5.7120096 L12.8773104,2.8781376 Z M11.8390224,9.6e-06 L3.0189744,9.6e-06 C1.3516464,9.6e-06 1.44e-05,1.3516416 1.44e-05,3.0189216 L1.44e-05,19.4153856 C1.44e-05,21.0826656 1.3516464,22.4342976 3.0189744,22.4342976 L14.9691504,22.4342976 C16.6363344,22.4342976 17.9878224,21.0828096 17.9878224,19.4156256 L17.9878224,6.7148736 C17.9878224,6.3854976 17.8664304,6.0676896 17.6467824,5.8222176 L12.8367024,0.4460736 C12.5827344,0.1622016 12.2199024,9.6e-06 11.8390224,9.6e-06 L11.8390224,9.6e-06 Z" id="Fill-1" fill="#B3AADB"></path>
                <path d="M4.0946064,16.0837392 L13.8927024,16.0837392 C14.3320944,16.0837392 14.6883024,16.4399472 14.6883024,16.8792912 C14.6883024,17.3187312 14.3320944,17.6748912 13.8927024,17.6748912 L4.0946064,17.6748912 C3.6552144,17.6748912 3.2990064,17.3187312 3.2990064,16.8792912 C3.2990064,16.4399472 3.6552144,16.0837392 4.0946064,16.0837392" id="Fill-3" fill="#B3AADB"></path>
                <path d="M4.0946064,12.6261456 L13.8927024,12.6261456 C14.3320944,12.6261456 14.6883024,12.9823536 14.6883024,13.4216976 C14.6883024,13.8611376 14.3320944,14.2172976 13.8927024,14.2172976 L4.0946064,14.2172976 C3.6552144,14.2172976 3.2990064,13.8611376 3.2990064,13.4216976 C3.2990064,12.9823536 3.6552144,12.6261456 4.0946064,12.6261456" id="Fill-5" fill="#B3AADB"></path>
                <path d="M4.0946064,9.1690656 L13.8927024,9.1690656 C14.3320944,9.1690656 14.6883024,9.5252736 14.6883024,9.9646176 C14.6883024,10.4040576 14.3320944,10.7602176 13.8927024,10.7602176 L4.0946064,10.7602176 C3.6552144,10.7602176 3.2990064,10.4040576 3.2990064,9.9646176 C3.2990064,9.5252736 3.6552144,9.1690656 4.0946064,9.1690656" id="Fill-7" fill="#B3AADB"></path>
            </g>
        </g>
    </g>
</svg>