<?xml version="1.0" encoding="UTF-8"?>
<svg width="20px" height="20px" viewBox="0 0 20 20" version="1.1" xmlns="http://www.w3.org/2000/svg" xmlns:xlink="http://www.w3.org/1999/xlink">
    <title>edit_white</title>
    <defs>
        <polygon id="path-1" points="4.73695157e-15 3.88430029e-13 19.9961701 3.88430029e-13 19.9961701 19.8987026 4.73695157e-15 19.8987026"></polygon>
    </defs>
    <g id="edit_white" stroke="none" stroke-width="1" fill="none" fill-rule="evenodd">
        <g id="Group-3">
            <mask id="mask-2" fill="white">
                <use xlink:href="#path-1"></use>
            </mask>
            <g id="Clip-2"></g>
            <path d="M0.0113119093,19.3346427 C-0.0627145558,19.6677996 0.238079395,19.9663251 0.571274102,19.8852665 L5.10401512,18.7862495 L1.0386465,14.7186125 L0.0113119093,19.3346427 Z M17.7743365,0.525758034 C17.0732779,-0.175300567 15.9349036,-0.175300567 15.2314631,0.525758034 L13.4938072,2.2634518 L17.561482,6.33112665 L19.5883629,4.30424575 C20.1321059,3.76046503 20.1321059,2.88356522 19.5883629,2.3397845 L17.7743365,0.525758034 Z M12.4341096,3.3208431 L16.5017845,7.38844234 L6.20537618,17.6848507 L2.14000756,13.6172136 L12.4341096,3.3208431 Z" id="Fill-1" fill="#FFFFFF" mask="url(#mask-2)"></path>
        </g>
    </g>
</svg>