<?xml version="1.0"?>
<svg xmlns="http://www.w3.org/2000/svg" xmlns:xlink="http://www.w3.org/1999/xlink" xmlns:svgjs="http://svgjs.com/svgjs" version="1.1" width="512" height="512" x="0" y="0" viewBox="0 0 512 512" style="enable-background:new 0 0 512 512" xml:space="preserve" class=""><g><g xmlns="http://www.w3.org/2000/svg"><path d="m467 0h-422c-24.813 0-45 20.187-45 45v301c0 24.813 20.187 45 45 45h136v91h-45c-8.284 0-15 6.716-15 15s6.716 15 15 15h240c8.284 0 15-6.716 15-15s-6.716-15-15-15h-45v-91h136c24.813 0 45-20.187 45-45v-301c0-24.813-20.187-45-45-45zm-166 482h-90v-91h90zm181-136c0 8.271-6.729 15-15 15h-422c-8.271 0-15-6.729-15-15v-301c0-8.271 6.729-15 15-15h422c8.271 0 15 6.729 15 15z" fill="#5d626c" data-original="#000000" style="" class=""/><path d="m166 121c-8.284 0-15 6.716-15 15v45h-30v-45c0-8.284-6.716-15-15-15s-15 6.716-15 15v60c0 8.284 6.716 15 15 15h45v45c0 8.284 6.716 15 15 15s15-6.716 15-15v-120c0-8.285-6.716-15-15-15z" fill="#5d626c" data-original="#000000" style="" class=""/><path d="m406 121c-8.284 0-15 6.716-15 15v45h-30v-45c0-8.284-6.716-15-15-15s-15 6.716-15 15v60c0 8.284 6.716 15 15 15h45v45c0 8.284 6.716 15 15 15s15-6.716 15-15v-120c0-8.285-6.716-15-15-15z" fill="#5d626c" data-original="#000000" style="" class=""/><path d="m286 121h-60c-8.284 0-15 6.716-15 15v120c0 8.284 6.716 15 15 15h60c8.284 0 15-6.716 15-15v-120c0-8.285-6.716-15-15-15zm-15 120h-30v-90h30z" fill="#5d626c" data-original="#000000" style="" class=""/></g></g></svg>
